<svg width="24" height="24" viewBox="0 0 24 24" fill="none" xmlns="http://www.w3.org/2000/svg">
<rect width="24" height="24" rx="12" fill="#448040"/>
<path d="M11.0541 13.6667C10.8396 13.6667 10.6599 13.5921 10.5149 13.4431C10.3698 13.294 10.2973 13.1093 10.2973 12.8889V9.77778C10.2973 9.55741 10.3698 9.37269 10.5149 9.22361C10.6599 9.07454 10.8396 9 11.0541 9H13.3243C13.5387 9 13.7185 9.07454 13.8635 9.22361C14.0086 9.37269 14.0811 9.55741 14.0811 9.77778V12.8889C14.0811 13.1093 14.0086 13.294 13.8635 13.4431C13.7185 13.5921 13.5387 13.6667 13.3243 13.6667H11.0541ZM11.4324 12.5H12.9459V10.1667H11.4324V12.5ZM5.75676 13.6667C5.54234 13.6667 5.36261 13.5921 5.21757 13.4431C5.07252 13.294 5 13.1093 5 12.8889V9.77778C5 9.55741 5.07252 9.37269 5.21757 9.22361C5.36261 9.07454 5.54234 9 5.75676 9H8.02703C8.24144 9 8.42117 9.07454 8.56622 9.22361C8.71126 9.37269 8.78378 9.55741 8.78378 9.77778V10.5556H7.64865V10.1667H6.13514V12.5H7.64865V12.1111H8.78378V12.8889C8.78378 13.1093 8.71126 13.294 8.56622 13.4431C8.42117 13.5921 8.24144 13.6667 8.02703 13.6667H5.75676ZM15.5946 16V14.0556C15.5946 13.8352 15.6671 13.6505 15.8122 13.5014C15.9572 13.3523 16.1369 13.2778 16.3514 13.2778H17.8649V12.5H15.5946V11.3333H18.2432C18.4577 11.3333 18.6374 11.4079 18.7824 11.5569C18.9275 11.706 19 11.8907 19 12.1111V13.2778C19 13.4981 18.9275 13.6829 18.7824 13.8319C18.6374 13.981 18.4577 14.0556 18.2432 14.0556H16.7297V14.8333H19V16H15.5946Z" fill="white"/>
</svg>
