<svg width="24" height="24" viewBox="0 0 24 24" fill="none" xmlns="http://www.w3.org/2000/svg">
<rect width="24" height="24" rx="12" fill="#448040"/>
<path d="M6 17V15.75H9.45C9.23 14.8646 8.8125 14.1016 8.1975 13.4609C7.5825 12.8203 6.85 12.3854 6 12.1562C6.2 12.1042 6.3975 12.0651 6.5925 12.0391C6.7875 12.013 6.99 12 7.2 12C8.54 12 9.675 12.4844 10.605 13.4531C11.535 14.4219 12 15.6042 12 17H6ZM13.2 17C13.2 16.5625 13.155 16.1276 13.065 15.6953C12.975 15.263 12.845 14.849 12.675 14.4531C13.095 13.7135 13.6675 13.1198 14.3925 12.6719C15.1175 12.224 15.92 12 16.8 12C17.01 12 17.2125 12.013 17.4075 12.0391C17.6025 12.0651 17.8 12.1042 18 12.1562C17.15 12.3854 16.42 12.8203 15.81 13.4609C15.2 14.1016 14.78 14.8646 14.55 15.75H18V17H13.2ZM12 13.2656C12 12.5885 12.12 11.9531 12.36 11.3594C12.6 10.7656 12.93 10.2422 13.35 9.78906C13.77 9.33594 14.2625 8.97396 14.8275 8.70313C15.3925 8.43229 15.995 8.28646 16.635 8.26562C16.075 8.63021 15.585 9.07812 15.165 9.60938C14.745 10.1406 14.42 10.7344 14.19 11.3906C13.75 11.6094 13.3475 11.8776 12.9825 12.1953C12.6175 12.513 12.29 12.8698 12 13.2656ZM10.905 12.0938C10.785 12 10.665 11.9115 10.545 11.8281C10.425 11.7448 10.3 11.6615 10.17 11.5781C10.17 11.5156 10.175 11.4505 10.185 11.3828C10.195 11.3151 10.2 11.25 10.2 11.1875C10.2 10.3958 10.08 9.64583 9.84 8.9375C9.6 8.22917 9.26 7.58333 8.82 7C9.48 7.28125 10.0525 7.6849 10.5375 8.21094C11.0225 8.73698 11.395 9.34375 11.655 10.0312C11.475 10.3438 11.32 10.6745 11.19 11.0234C11.06 11.3724 10.965 11.7292 10.905 12.0938Z" fill="white"/>
</svg>
