<svg width="24" height="24" viewBox="0 0 24 24" fill="none" xmlns="http://www.w3.org/2000/svg">
<rect width="24" height="24" rx="12" fill="#FFAE3C"/>
<path d="M12 19C10.3375 19 8.92188 18.4103 7.75313 17.2308C6.58438 16.0513 6 14.6154 6 12.9231C6 12.1154 6.15312 11.3429 6.45938 10.6058C6.76562 9.86859 7.2 9.21795 7.7625 8.65385L10.95 5.44231C11.1 5.30128 11.2656 5.19231 11.4469 5.11538C11.6281 5.03846 11.8125 5 12 5C12.1875 5 12.3719 5.03846 12.5531 5.11538C12.7344 5.19231 12.9 5.30128 13.05 5.44231L16.2375 8.65385C16.8 9.21795 17.2344 9.86859 17.5406 10.6058C17.8469 11.3429 18 12.1154 18 12.9231C18 14.6154 17.4156 16.0513 16.2469 17.2308C15.0781 18.4103 13.6625 19 12 19ZM7.5 12.9231H16.5C16.5 12.3205 16.3875 11.7468 16.1625 11.2019C15.9375 10.6571 15.6125 10.1795 15.1875 9.76923L12 6.53846L8.8125 9.76923C8.3875 10.1795 8.0625 10.6571 7.8375 11.2019C7.6125 11.7468 7.5 12.3205 7.5 12.9231Z" fill="white"/>
</svg>
