<svg width="24" height="24" viewBox="0 0 24 24" fill="none" xmlns="http://www.w3.org/2000/svg">
<path fill-rule="evenodd" clip-rule="evenodd" d="M0 12C0 5.37258 5.37258 0 12 0C18.6274 0 24 5.37258 24 12C24 18.6274 18.6274 24 12 24C5.37258 24 0 18.6274 0 12ZM12 22C10.6167 22 9.31667 21.7375 8.1 21.2125C6.88333 20.6875 5.825 19.975 4.925 19.075C4.025 18.175 3.3125 17.1167 2.7875 15.9C2.2625 14.6833 2 13.3833 2 12C2 10.6167 2.2625 9.31667 2.7875 8.1C3.3125 6.88333 4.025 5.825 4.925 4.925C5.825 4.025 6.88333 3.3125 8.1 2.7875C9.31667 2.2625 10.6167 2 12 2C13.3833 2 14.6833 2.2625 15.9 2.7875C17.1167 3.3125 18.175 4.025 19.075 4.925C19.975 5.825 20.6875 6.88333 21.2125 8.1C21.7375 9.31667 22 10.6167 22 12C22 13.3833 21.7375 14.6833 21.2125 15.9C20.6875 17.1167 19.975 18.175 19.075 19.075C18.175 19.975 17.1167 20.6875 15.9 21.2125C14.6833 21.7375 13.3833 22 12 22ZM17.675 17.675C16.125 19.225 14.2333 20 12 20C9.76667 20 7.875 19.225 6.325 17.675C4.775 16.125 4 14.2333 4 12C4 9.76667 4.775 7.875 6.325 6.325C7.875 4.775 9.76667 4 12 4C14.2333 4 16.125 4.775 17.675 6.325C19.225 7.875 20 9.76667 20 12C20 14.2333 19.225 16.125 17.675 17.675ZM8 14V12H16V14C16 15.1 15.6083 16.0417 14.825 16.825C14.0417 17.6083 13.1 18 12 18C10.9 18 9.95833 17.6083 9.175 16.825C8.39167 16.0417 8 15.1 8 14ZM12 16.5C11.3 16.5 10.7083 16.2583 10.225 15.775C9.74167 15.2917 9.5 14.7 9.5 14V13.5H14.5V14C14.5 14.7 14.2583 15.2917 13.775 15.775C13.2917 16.2583 12.7 16.5 12 16.5ZM15.5 7C14.8667 7 14.3042 7.22917 13.8125 7.6875C13.3208 8.14583 12.975 8.775 12.775 9.575L14.225 9.925C14.325 9.49167 14.4917 9.14583 14.725 8.8875C14.9583 8.62917 15.2167 8.5 15.5 8.5C15.7833 8.5 16.0417 8.62917 16.275 8.8875C16.5083 9.14583 16.675 9.49167 16.775 9.925L18.225 9.575C18.025 8.775 17.6792 8.14583 17.1875 7.6875C16.6958 7.22917 16.1333 7 15.5 7ZM6.8125 7.6875C7.30417 7.22917 7.86667 7 8.5 7C9.13333 7 9.69583 7.22917 10.1875 7.6875C10.6792 8.14583 11.025 8.775 11.225 9.575L9.775 9.925C9.675 9.49167 9.50833 9.14583 9.275 8.8875C9.04167 8.62917 8.78333 8.5 8.5 8.5C8.21667 8.5 7.95833 8.62917 7.725 8.8875C7.49167 9.14583 7.325 9.49167 7.225 9.925L5.775 9.575C5.975 8.775 6.32083 8.14583 6.8125 7.6875Z" fill="white"/>
</svg>
